<?xml version="1.0" encoding="UTF-8" standalone="no"?>
<!DOCTYPE svg PUBLIC "-//W3C//DTD SVG 1.1//EN"
 "http://www.w3.org/Graphics/SVG/1.1/DTD/svg11.dtd">
<!-- Generated by graphviz version 2.47.0 (20210316.0004)
 -->
<!-- Title: dependencies Pages: 1 -->
<svg width="504pt" height="211pt"
 viewBox="0.00 0.00 504.00 211.00" xmlns="http://www.w3.org/2000/svg" xmlns:xlink="http://www.w3.org/1999/xlink">
<g id="graph0" class="graph" transform="scale(1 1) rotate(0) translate(4 207)">
<title>dependencies</title>
<polygon fill="white" stroke="transparent" points="-4,4 -4,-207 500,-207 500,4 -4,4"/>
<text text-anchor="start" x="227.01" y="-42.4" font-family="Times-12" font-weight="bold" font-size="14.00">Legend</text>
<polygon fill="#ffffb3" stroke="transparent" points="14,-10 14,-30 34,-30 34,-10 14,-10"/>
<text text-anchor="start" x="37.63" y="-15.4" font-family="Times-12" font-size="14.00"> &#160;Declarations</text>
<polygon fill="#8dd3c7" stroke="transparent" points="127,-10 127,-30 147,-30 147,-10 127,-10"/>
<text text-anchor="start" x="150.73" y="-15.4" font-family="Times-12" font-size="14.00"> &#160;Module</text>
<polygon fill="#80b1d3" stroke="transparent" points="213,-10 213,-30 233,-30 233,-10 213,-10"/>
<text text-anchor="start" x="236.78" y="-15.4" font-family="Times-12" font-size="14.00"> &#160;Bootstrap</text>
<polygon fill="#fdb462" stroke="transparent" points="310,-10 310,-30 330,-30 330,-10 310,-10"/>
<text text-anchor="start" x="333.67" y="-15.4" font-family="Times-12" font-size="14.00"> &#160;Providers</text>
<polygon fill="#fb8072" stroke="transparent" points="406,-10 406,-30 426,-30 426,-10 406,-10"/>
<text text-anchor="start" x="429.73" y="-15.4" font-family="Times-12" font-size="14.00"> &#160;Exports</text>
<g id="clust1" class="cluster">
<title>cluster_GraphicsCardChoicePageModule</title>
<polygon fill="none" stroke="black" stroke-dasharray="1,5" points="15,-70 15,-195 481,-195 481,-70 15,-70"/>
</g>
<g id="clust2" class="cluster">
<title>cluster_GraphicsCardChoicePageModule_declarations</title>
<polygon fill="none" stroke="black" points="297,-78 297,-130 473,-130 473,-78 297,-78"/>
</g>
<g id="clust4" class="cluster">
<title>cluster_GraphicsCardChoicePageModule_imports</title>
<polygon fill="none" stroke="black" points="23,-78 23,-130 289,-130 289,-78 23,-78"/>
</g>
<!-- GraphicsCardChoicePage -->
<g id="node1" class="node">
<title>GraphicsCardChoicePage</title>
<polygon fill="#ffffb3" stroke="black" points="465.11,-122 304.89,-122 304.89,-86 465.11,-86 465.11,-122"/>
<text text-anchor="middle" x="385" y="-99.8" font-family="Times,serif" font-size="14.00">GraphicsCardChoicePage</text>
</g>
<!-- GraphicsCardChoicePageModule -->
<g id="node2" class="node">
<title>GraphicsCardChoicePageModule</title>
<polygon fill="#8dd3c7" stroke="black" points="365.16,-187 362.16,-191 341.16,-191 338.16,-187 160.84,-187 160.84,-151 365.16,-151 365.16,-187"/>
<text text-anchor="middle" x="263" y="-164.8" font-family="Times,serif" font-size="14.00">GraphicsCardChoicePageModule</text>
</g>
<!-- GraphicsCardChoicePage&#45;&gt;GraphicsCardChoicePageModule -->
<g id="edge1" class="edge">
<title>GraphicsCardChoicePage&#45;&gt;GraphicsCardChoicePageModule</title>
<path fill="none" stroke="black" d="M334.89,-122.11C334.89,-122.11 334.89,-140.99 334.89,-140.99"/>
<polygon fill="black" stroke="black" points="331.39,-140.99 334.89,-150.99 338.39,-140.99 331.39,-140.99"/>
</g>
<!-- GraphicsCardChoicePageRoutingModule -->
<g id="node3" class="node">
<title>GraphicsCardChoicePageRoutingModule</title>
<polygon fill="#8dd3c7" stroke="black" points="280.78,-122 277.78,-126 256.78,-126 253.78,-122 31.22,-122 31.22,-86 280.78,-86 280.78,-122"/>
<text text-anchor="middle" x="156" y="-99.8" font-family="Times,serif" font-size="14.00">GraphicsCardChoicePageRoutingModule</text>
</g>
<!-- GraphicsCardChoicePageRoutingModule&#45;&gt;GraphicsCardChoicePageModule -->
<g id="edge2" class="edge">
<title>GraphicsCardChoicePageRoutingModule&#45;&gt;GraphicsCardChoicePageModule</title>
<path fill="none" stroke="black" d="M220.78,-122.11C220.78,-122.11 220.78,-140.99 220.78,-140.99"/>
<polygon fill="black" stroke="black" points="217.28,-140.99 220.78,-150.99 224.28,-140.99 217.28,-140.99"/>
</g>
</g>
</svg>
