<?xml version="1.0" encoding="UTF-8" standalone="no"?>
<!DOCTYPE svg PUBLIC "-//W3C//DTD SVG 1.1//EN"
 "http://www.w3.org/Graphics/SVG/1.1/DTD/svg11.dtd">
<!-- Generated by graphviz version 2.47.0 (20210316.0004)
 -->
<!-- Title: dependencies Pages: 1 -->
<svg width="504pt" height="211pt"
 viewBox="0.00 0.00 504.00 211.00" xmlns="http://www.w3.org/2000/svg" xmlns:xlink="http://www.w3.org/1999/xlink">
<g id="graph0" class="graph" transform="scale(1 1) rotate(0) translate(4 207)">
<title>dependencies</title>
<polygon fill="white" stroke="transparent" points="-4,4 -4,-207 500,-207 500,4 -4,4"/>
<text text-anchor="start" x="227.01" y="-42.4" font-family="Times-12" font-weight="bold" font-size="14.00">Legend</text>
<polygon fill="#ffffb3" stroke="transparent" points="14,-10 14,-30 34,-30 34,-10 14,-10"/>
<text text-anchor="start" x="37.63" y="-15.4" font-family="Times-12" font-size="14.00"> &#160;Declarations</text>
<polygon fill="#8dd3c7" stroke="transparent" points="127,-10 127,-30 147,-30 147,-10 127,-10"/>
<text text-anchor="start" x="150.73" y="-15.4" font-family="Times-12" font-size="14.00"> &#160;Module</text>
<polygon fill="#80b1d3" stroke="transparent" points="213,-10 213,-30 233,-30 233,-10 213,-10"/>
<text text-anchor="start" x="236.78" y="-15.4" font-family="Times-12" font-size="14.00"> &#160;Bootstrap</text>
<polygon fill="#fdb462" stroke="transparent" points="310,-10 310,-30 330,-30 330,-10 310,-10"/>
<text text-anchor="start" x="333.67" y="-15.4" font-family="Times-12" font-size="14.00"> &#160;Providers</text>
<polygon fill="#fb8072" stroke="transparent" points="406,-10 406,-30 426,-30 426,-10 406,-10"/>
<text text-anchor="start" x="429.73" y="-15.4" font-family="Times-12" font-size="14.00"> &#160;Exports</text>
<g id="clust1" class="cluster">
<title>cluster_SSDChoicePageModule</title>
<polygon fill="none" stroke="black" stroke-dasharray="1,5" points="67,-70 67,-195 429,-195 429,-70 67,-70"/>
</g>
<g id="clust4" class="cluster">
<title>cluster_SSDChoicePageModule_imports</title>
<polygon fill="none" stroke="black" points="207,-78 207,-130 421,-130 421,-78 207,-78"/>
</g>
<g id="clust2" class="cluster">
<title>cluster_SSDChoicePageModule_declarations</title>
<polygon fill="none" stroke="black" points="75,-78 75,-130 199,-130 199,-78 75,-78"/>
</g>
<!-- SSDChoicePage -->
<g id="node1" class="node">
<title>SSDChoicePage</title>
<polygon fill="#ffffb3" stroke="black" points="191.04,-122 82.96,-122 82.96,-86 191.04,-86 191.04,-122"/>
<text text-anchor="middle" x="137" y="-99.8" font-family="Times,serif" font-size="14.00">SSDChoicePage</text>
</g>
<!-- SSDChoicePageModule -->
<g id="node2" class="node">
<title>SSDChoicePageModule</title>
<polygon fill="#8dd3c7" stroke="black" points="308.09,-187 305.09,-191 284.09,-191 281.09,-187 155.91,-187 155.91,-151 308.09,-151 308.09,-187"/>
<text text-anchor="middle" x="232" y="-164.8" font-family="Times,serif" font-size="14.00">SSDChoicePageModule</text>
</g>
<!-- SSDChoicePage&#45;&gt;SSDChoicePageModule -->
<g id="edge1" class="edge">
<title>SSDChoicePage&#45;&gt;SSDChoicePageModule</title>
<path fill="none" stroke="black" d="M173.61,-122.11C173.61,-122.11 173.61,-140.99 173.61,-140.99"/>
<polygon fill="black" stroke="black" points="170.11,-140.99 173.61,-150.99 177.11,-140.99 170.11,-140.99"/>
</g>
<!-- SSDChoicePageRoutingModule -->
<g id="node3" class="node">
<title>SSDChoicePageRoutingModule</title>
<polygon fill="#8dd3c7" stroke="black" points="412.71,-122 409.71,-126 388.71,-126 385.71,-122 215.29,-122 215.29,-86 412.71,-86 412.71,-122"/>
<text text-anchor="middle" x="314" y="-99.8" font-family="Times,serif" font-size="14.00">SSDChoicePageRoutingModule</text>
</g>
<!-- SSDChoicePageRoutingModule&#45;&gt;SSDChoicePageModule -->
<g id="edge2" class="edge">
<title>SSDChoicePageRoutingModule&#45;&gt;SSDChoicePageModule</title>
<path fill="none" stroke="black" d="M261.72,-122.11C261.72,-122.11 261.72,-140.99 261.72,-140.99"/>
<polygon fill="black" stroke="black" points="258.22,-140.99 261.72,-150.99 265.22,-140.99 258.22,-140.99"/>
</g>
</g>
</svg>
