<?xml version="1.0" encoding="UTF-8" standalone="no"?>
<!DOCTYPE svg PUBLIC "-//W3C//DTD SVG 1.1//EN"
 "http://www.w3.org/Graphics/SVG/1.1/DTD/svg11.dtd">
<!-- Generated by graphviz version 2.47.0 (20210316.0004)
 -->
<!-- Title: dependencies Pages: 1 -->
<svg width="504pt" height="211pt"
 viewBox="0.00 0.00 504.00 211.00" xmlns="http://www.w3.org/2000/svg" xmlns:xlink="http://www.w3.org/1999/xlink">
<g id="graph0" class="graph" transform="scale(1 1) rotate(0) translate(4 207)">
<title>dependencies</title>
<polygon fill="white" stroke="transparent" points="-4,4 -4,-207 500,-207 500,4 -4,4"/>
<text text-anchor="start" x="227.01" y="-42.4" font-family="Times-12" font-weight="bold" font-size="14.00">Legend</text>
<polygon fill="#ffffb3" stroke="transparent" points="14,-10 14,-30 34,-30 34,-10 14,-10"/>
<text text-anchor="start" x="37.63" y="-15.4" font-family="Times-12" font-size="14.00"> &#160;Declarations</text>
<polygon fill="#8dd3c7" stroke="transparent" points="127,-10 127,-30 147,-30 147,-10 127,-10"/>
<text text-anchor="start" x="150.73" y="-15.4" font-family="Times-12" font-size="14.00"> &#160;Module</text>
<polygon fill="#80b1d3" stroke="transparent" points="213,-10 213,-30 233,-30 233,-10 213,-10"/>
<text text-anchor="start" x="236.78" y="-15.4" font-family="Times-12" font-size="14.00"> &#160;Bootstrap</text>
<polygon fill="#fdb462" stroke="transparent" points="310,-10 310,-30 330,-30 330,-10 310,-10"/>
<text text-anchor="start" x="333.67" y="-15.4" font-family="Times-12" font-size="14.00"> &#160;Providers</text>
<polygon fill="#fb8072" stroke="transparent" points="406,-10 406,-30 426,-30 426,-10 406,-10"/>
<text text-anchor="start" x="429.73" y="-15.4" font-family="Times-12" font-size="14.00"> &#160;Exports</text>
<g id="clust1" class="cluster">
<title>cluster_MultitaskPageModule</title>
<polygon fill="none" stroke="black" stroke-dasharray="1,5" points="79,-70 79,-195 417,-195 417,-70 79,-70"/>
</g>
<g id="clust2" class="cluster">
<title>cluster_MultitaskPageModule_declarations</title>
<polygon fill="none" stroke="black" points="297,-78 297,-130 409,-130 409,-78 297,-78"/>
</g>
<g id="clust4" class="cluster">
<title>cluster_MultitaskPageModule_imports</title>
<polygon fill="none" stroke="black" points="87,-78 87,-130 289,-130 289,-78 87,-78"/>
</g>
<!-- MultitaskPage -->
<g id="node1" class="node">
<title>MultitaskPage</title>
<polygon fill="#ffffb3" stroke="black" points="401.38,-122 304.62,-122 304.62,-86 401.38,-86 401.38,-122"/>
<text text-anchor="middle" x="353" y="-99.8" font-family="Times,serif" font-size="14.00">MultitaskPage</text>
</g>
<!-- MultitaskPageModule -->
<g id="node2" class="node">
<title>MultitaskPageModule</title>
<polygon fill="#8dd3c7" stroke="black" points="333.43,-187 330.43,-191 309.43,-191 306.43,-187 192.57,-187 192.57,-151 333.43,-151 333.43,-187"/>
<text text-anchor="middle" x="263" y="-164.8" font-family="Times,serif" font-size="14.00">MultitaskPageModule</text>
</g>
<!-- MultitaskPage&#45;&gt;MultitaskPageModule -->
<g id="edge1" class="edge">
<title>MultitaskPage&#45;&gt;MultitaskPageModule</title>
<path fill="none" stroke="black" d="M318.89,-122.11C318.89,-122.11 318.89,-140.99 318.89,-140.99"/>
<polygon fill="black" stroke="black" points="315.39,-140.99 318.89,-150.99 322.39,-140.99 315.39,-140.99"/>
</g>
<!-- MultitaskPageRoutingModule -->
<g id="node3" class="node">
<title>MultitaskPageRoutingModule</title>
<polygon fill="#8dd3c7" stroke="black" points="280.55,-122 277.55,-126 256.55,-126 253.55,-122 95.45,-122 95.45,-86 280.55,-86 280.55,-122"/>
<text text-anchor="middle" x="188" y="-99.8" font-family="Times,serif" font-size="14.00">MultitaskPageRoutingModule</text>
</g>
<!-- MultitaskPageRoutingModule&#45;&gt;MultitaskPageModule -->
<g id="edge2" class="edge">
<title>MultitaskPageRoutingModule&#45;&gt;MultitaskPageModule</title>
<path fill="none" stroke="black" d="M236.78,-122.11C236.78,-122.11 236.78,-140.99 236.78,-140.99"/>
<polygon fill="black" stroke="black" points="233.28,-140.99 236.78,-150.99 240.28,-140.99 233.28,-140.99"/>
</g>
</g>
</svg>
